<svg width="78" height="22" viewBox="0 0 78 22" fill="none" xmlns="http://www.w3.org/2000/svg">
<path d="M2.704 10.892H6.092C7.324 10.892 8.40667 10.7147 9.34 10.36C10.292 10.0053 11.0293 9.492 11.552 8.82C12.0933 8.12933 12.364 7.29867 12.364 6.328C12.364 5.208 12.0933 4.284 11.552 3.556C11.0293 2.828 10.292 2.28667 9.34 1.932C8.40667 1.57733 7.324 1.4 6.092 1.4H0.184V21H6.428C7.80933 21 9.02267 20.804 10.068 20.412C11.132 20.0013 11.9627 19.376 12.56 18.536C13.176 17.696 13.484 16.632 13.484 15.344C13.484 14.4107 13.2973 13.608 12.924 12.936C12.5507 12.264 12.028 11.7133 11.356 11.284C10.7027 10.8547 9.956 10.5373 9.116 10.332C8.276 10.1267 7.38 10.024 6.428 10.024H2.704V11.844H6.232C6.792 11.844 7.30533 11.9093 7.772 12.04C8.23867 12.152 8.64 12.348 8.976 12.628C9.33067 12.8893 9.60133 13.2253 9.788 13.636C9.99333 14.028 10.096 14.4853 10.096 15.008C10.096 15.736 9.928 16.3427 9.592 16.828C9.256 17.3133 8.79867 17.6773 8.22 17.92C7.64133 18.1627 6.97867 18.284 6.232 18.284H3.488V4.116H5.868C6.78267 4.116 7.52933 4.34 8.108 4.788C8.68667 5.236 8.976 5.87067 8.976 6.692C8.976 7.23333 8.84533 7.7 8.584 8.092C8.32267 8.46533 7.95867 8.75467 7.492 8.96C7.02533 9.16533 6.484 9.268 5.868 9.268H2.704V10.892ZM19.3531 11.2C19.3531 9.856 19.6331 8.66133 20.1931 7.616C20.7717 6.552 21.5651 5.72133 22.5731 5.124C23.5811 4.52667 24.7291 4.228 26.0171 4.228C27.3424 4.228 28.4997 4.52667 29.4891 5.124C30.4971 5.72133 31.2811 6.552 31.8411 7.616C32.4011 8.66133 32.6811 9.856 32.6811 11.2C32.6811 12.544 32.3917 13.748 31.8131 14.812C31.2531 15.8573 30.4691 16.6787 29.4611 17.276C28.4717 17.8733 27.3237 18.172 26.0171 18.172C24.7291 18.172 23.5811 17.8733 22.5731 17.276C21.5651 16.6787 20.7717 15.8573 20.1931 14.812C19.6331 13.748 19.3531 12.544 19.3531 11.2ZM15.8531 11.2C15.8531 12.656 16.1051 14.0093 16.6091 15.26C17.1131 16.5107 17.8131 17.5933 18.7091 18.508C19.6237 19.4227 20.7064 20.1413 21.9571 20.664C23.2077 21.168 24.5611 21.42 26.0171 21.42C27.4917 21.42 28.8451 21.168 30.0771 20.664C31.3277 20.1413 32.4104 19.4227 33.3251 18.508C34.2397 17.5933 34.9491 16.5107 35.4531 15.26C35.9571 14.0093 36.2091 12.656 36.2091 11.2C36.2091 9.72533 35.9571 8.372 35.4531 7.14C34.9491 5.908 34.2304 4.844 33.2971 3.948C32.3824 3.03333 31.3091 2.324 30.0771 1.82C28.8451 1.316 27.4917 1.064 26.0171 1.064C24.5797 1.064 23.2357 1.316 21.9851 1.82C20.7531 2.324 19.6704 3.03333 18.7371 3.948C17.8224 4.844 17.1131 5.908 16.6091 7.14C16.1051 8.372 15.8531 9.72533 15.8531 11.2ZM53.7303 1.4V14.56L39.4223 0.42V21H42.6703V7.84L56.9783 21.98V1.4H53.7303ZM61.3246 1.4V21H64.6846V1.4H61.3246ZM67.6526 21C69.65 21 71.4046 20.5987 72.9166 19.796C74.4286 18.9747 75.6046 17.836 76.4446 16.38C77.3033 14.9053 77.7326 13.1787 77.7326 11.2C77.7326 9.22133 77.3033 7.504 76.4446 6.048C75.6046 4.57333 74.4286 3.43467 72.9166 2.632C71.4046 1.81067 69.65 1.4 67.6526 1.4H63.3686V4.508H67.5686C68.5393 4.508 69.4353 4.648 70.2566 4.928C71.078 5.208 71.7873 5.628 72.3846 6.188C73.0006 6.748 73.4766 7.448 73.8126 8.288C74.1673 9.128 74.3446 10.0987 74.3446 11.2C74.3446 12.3013 74.1673 13.272 73.8126 14.112C73.4766 14.952 73.0006 15.652 72.3846 16.212C71.7873 16.772 71.078 17.192 70.2566 17.472C69.4353 17.752 68.5393 17.892 67.5686 17.892H63.3686V21H67.6526Z" fill="currentColor" />
</svg>
