<svg width="32" height="32" viewBox="0 0 32 32" fill="none" xmlns="http://www.w3.org/2000/svg">
<g clip-path="url(#clip0_77_41)">
<rect width="32" height="32" rx="0.355556" fill="#FAFAFA"/>
<path d="M11.376 15.448H15.248C16.656 15.448 17.8933 15.2453 18.96 14.84C20.048 14.4347 20.8907 13.848 21.488 13.08C22.1067 12.2907 22.416 11.3413 22.416 10.232C22.416 8.952 22.1067 7.896 21.488 7.064C20.8907 6.232 20.048 5.61333 18.96 5.208C17.8933 4.80267 16.656 4.6 15.248 4.6H8.496V27H15.632C17.2107 27 18.5973 26.776 19.792 26.328C21.008 25.8587 21.9573 25.144 22.64 24.184C23.344 23.224 23.696 22.008 23.696 20.536C23.696 19.4693 23.4827 18.552 23.056 17.784C22.6293 17.016 22.032 16.3867 21.264 15.896C20.5173 15.4053 19.664 15.0427 18.704 14.808C17.744 14.5733 16.72 14.456 15.632 14.456H11.376V16.536H15.408C16.048 16.536 16.6347 16.6107 17.168 16.76C17.7013 16.888 18.16 17.112 18.544 17.432C18.9493 17.7307 19.2587 18.1147 19.472 18.584C19.7067 19.032 19.824 19.5547 19.824 20.152C19.824 20.984 19.632 21.6773 19.248 22.232C18.864 22.7867 18.3413 23.2027 17.68 23.48C17.0187 23.7573 16.2613 23.896 15.408 23.896H12.272V7.704H14.992C16.0373 7.704 16.8907 7.96 17.552 8.472C18.2133 8.984 18.544 9.70933 18.544 10.648C18.544 11.2667 18.3947 11.8 18.096 12.248C17.7973 12.6747 17.3813 13.0053 16.848 13.24C16.3147 13.4747 15.696 13.592 14.992 13.592H11.376V15.448Z" fill="#18181B"/>
</g>
<defs>
<clipPath id="clip0_77_41">
<rect width="32" height="32" rx="0.355556" fill="white"/>
</clipPath>
</defs>
</svg>
